# xmcd
#
# Track frame offsets: 
#        150
#        21363
#        38426
#        53856
#        71525
#        88782
#        111090
#        132548
#        149112
#        168181
#
# Disc length: 2479 seconds
#
# Revision: 0
# Processed by: cddbd v1.5.2PL0 Copyright (c) Steve Scherf et al.
# Submitted via: ExactAudioCopy v0.99pb3
#
DISCID=8d09ad0a
DTITLE=Hank Decken - Another Seven Days [CD2)
DYEAR=2002
DGENRE=Rock
TTITLE0=Wide Horizon
TTITLE1=Wisdom
TTITLE2=Fools
TTITLE3=Rumors
TTITLE4=Little Army
TTITLE5=Angel
TTITLE6=All That We Are
TTITLE7=Missed By Inches
TTITLE8=Train
TTITLE9=Z Dog
EXTD=
EXTT0=
EXTT1=
EXTT2=
EXTT3=
EXTT4=
EXTT5=
EXTT6=
EXTT7=
EXTT8=
EXTT9=
PLAYORDER=
